<svg xmlns="http://www.w3.org/2000/svg" width="1280" height="720" viewBox="0 0 1280 720" role="img" aria-labelledby="title desc">
  <title id="title">Local Image Studio project cover</title>
  <desc id="desc">A focused image-generation workspace on top of a local ComfyUI server.</desc>
  <defs>
    <linearGradient id="bg" x1="0" y1="0" x2="1" y2="1">
      <stop offset="0" stop-color="#0a0d13"/>
      <stop offset="0.55" stop-color="#101522"/>
      <stop offset="1" stop-color="#171021"/>
    </linearGradient>
    <linearGradient id="accent" x1="0" y1="0" x2="1" y2="1">
      <stop offset="0" stop-color="#f472b6"/>
      <stop offset="1" stop-color="#8b5cf6"/>
    </linearGradient>
    <filter id="glow"><feGaussianBlur stdDeviation="28"/></filter>
  </defs>
  <rect width="1280" height="720" rx="34" fill="url(#bg)"/>
  <circle cx="1110" cy="100" r="190" fill="#8b5cf6" opacity=".16" filter="url(#glow)"/>
  <circle cx="150" cy="680" r="220" fill="#f472b6" opacity=".10" filter="url(#glow)"/>
  <g transform="translate(86 82)">
    <rect x="0" y="0" width="172" height="42" rx="21" fill="#f472b6" opacity=".13" stroke="#f472b6" stroke-opacity=".45"/>
    <text x="86" y="28" text-anchor="middle" fill="#f472b6" font-size="18" font-weight="700" letter-spacing="1.3" font-family="Inter, ui-sans-serif, system-ui, sans-serif">LOCAL AI</text>
    <text x="0" y="120" fill="#f6f8fc" font-size="70" font-weight="800" font-family="Inter, ui-sans-serif, system-ui, sans-serif">Local Image Studio</text>
    <text x="0" y="172" fill="#9eabc1" font-size="25" font-family="Inter, ui-sans-serif, system-ui, sans-serif">A focused image-generation workspace on top of a local ComfyUI server.</text>
  </g>
  <g transform="translate(684 118)">
    <rect width="500" height="484" rx="28" fill="#0d1119" stroke="#2c3546" stroke-width="2"/>
    <rect x="22" y="22" width="456" height="54" rx="14" fill="#141b27"/>
    <circle cx="52" cy="49" r="7" fill="#f472b6"/>
    <circle cx="76" cy="49" r="7" fill="#8b5cf6" opacity=".75"/>
    <text x="108" y="57" fill="#dce4f2" font-size="21" font-weight="700" font-family="Inter, ui-sans-serif, system-ui, sans-serif">LOCAL GENERATION</text>
    <rect x="28" y="104" width="444" height="330" rx="18" fill="#0a0e15" stroke="#222b39"/>
    <path d="M54 184 C122 110, 180 248, 246 164 S362 114, 444 194" fill="none" stroke="url(#accent)" stroke-width="5" stroke-linecap="round"/>
    
      <text x="760" y="284" fill="#f472b6" font-size="24" font-family="ui-monospace, SFMono-Regular, Menlo, monospace">prompt → queue</text>
      <text x="760" y="336" fill="#aebad0" font-size="24" font-family="ui-monospace, SFMono-Regular, Menlo, monospace">ComfyUI → image</text>
      <text x="760" y="388" fill="#aebad0" font-size="24" font-family="ui-monospace, SFMono-Regular, Menlo, monospace">metadata → SQLite</text>
    <rect x="50" y="382" width="388" height="1" fill="#253044"/>
    <rect x="50" y="404" width="104" height="10" rx="5" fill="#f472b6" opacity=".72"/>
    <rect x="168" y="404" width="148" height="10" rx="5" fill="#314059"/>
    <rect x="330" y="404" width="78" height="10" rx="5" fill="#8b5cf6" opacity=".62"/>
  </g>
  
    <g transform="translate(92 430)">
      <circle cx="8" cy="8" r="5" fill="#f472b6"/>
      <text x="28" y="15" fill="#c9d4e7" font-size="22" font-family="Inter, ui-sans-serif, system-ui, sans-serif">Automatic local model discovery</text>
    </g>
    <g transform="translate(92 484)">
      <circle cx="8" cy="8" r="5" fill="#f472b6"/>
      <text x="28" y="15" fill="#c9d4e7" font-size="22" font-family="Inter, ui-sans-serif, system-ui, sans-serif">Workflow adapters for Z-Image + SDXL</text>
    </g>
    <g transform="translate(92 538)">
      <circle cx="8" cy="8" r="5" fill="#f472b6"/>
      <text x="28" y="15" fill="#c9d4e7" font-size="22" font-family="Inter, ui-sans-serif, system-ui, sans-serif">SQLite generation history</text>
    </g>
</svg>