<svg xmlns="http://www.w3.org/2000/svg" width="1280" height="720" viewBox="0 0 1280 720" role="img" aria-labelledby="title desc">
  <title id="title">oVitals: technical illustration</title>
  <desc id="desc">Linux sensors feeding a CPU load chart. Concept illustration, not a product screenshot.</desc>
  <defs>
    <linearGradient id="bg" x2="1" y2="1"><stop stop-color="#0d1119"/><stop offset="1" stop-color="#1c2030"/></linearGradient>
    <pattern id="grid" width="64" height="64" patternUnits="userSpaceOnUse"><path d="M64 0H0V64" fill="none" stroke="#ffffff" stroke-opacity=".04"/></pattern>
  </defs>
  <rect width="1280" height="720" fill="url(#bg)"/>
  <rect width="1280" height="720" fill="url(#grid)"/>
  <g font-family="system-ui, sans-serif">
    <path d="M72 92h48" stroke="#7dcfff" stroke-width="8" stroke-linecap="round"/>
    <text x="72" y="188" fill="#f6f8fc" font-size="64" font-weight="750">oVitals</text>
    <text x="72" y="252" fill="#7dcfff" font-size="38">Sensors → desktop</text>
    <path d="M76 464h104l44-74 54 146 48-72h104" fill="none" stroke="#7dcfff" stroke-width="10" stroke-linejoin="round"/><path d="M470 464h90m-20-20 20 20-20 20" fill="none" stroke="#94a3b8" stroke-width="7"/><path d="M624 580h580" stroke="#46536b" stroke-width="3"/><rect x="636" y="490" width="26" height="90" rx="8" fill="#7dcfff" opacity="0.5"/><rect x="682" y="424" width="26" height="156" rx="8" fill="#7dcfff" opacity="0.7"/><rect x="728" y="462" width="26" height="118" rx="8" fill="#7dcfff" opacity="0.9"/><rect x="774" y="360" width="26" height="220" rx="8" fill="#7dcfff" opacity="0.5"/><rect x="820" y="404" width="26" height="176" rx="8" fill="#7dcfff" opacity="0.7"/><rect x="866" y="474" width="26" height="106" rx="8" fill="#7dcfff" opacity="0.9"/><rect x="912" y="390" width="26" height="190" rx="8" fill="#7dcfff" opacity="0.5"/><rect x="958" y="438" width="26" height="142" rx="8" fill="#7dcfff" opacity="0.7"/><rect x="1004" y="346" width="26" height="234" rx="8" fill="#7dcfff" opacity="0.9"/><rect x="1050" y="400" width="26" height="180" rx="8" fill="#7dcfff" opacity="0.5"/><rect x="1096" y="456" width="26" height="124" rx="8" fill="#7dcfff" opacity="0.7"/><rect x="1142" y="378" width="26" height="202" rx="8" fill="#7dcfff" opacity="0.9"/>
  </g>
</svg>
